<mxfile host="app.diagrams.net" agent="Mozilla/5.0 (X11; CrOS x86_64 14541.0.0) AppleWebKit/537.36 (KHTML, like Gecko) Chrome/134.0.0.0 Safari/537.36" version="26.1.2">
  <diagram name="Página-1" id="qKyIh7d2pIZVbJnpBSl7">
    <mxGraphModel dx="704" dy="368" grid="1" gridSize="10" guides="1" tooltips="1" connect="1" arrows="1" fold="1" page="1" pageScale="1" pageWidth="827" pageHeight="1169" math="0" shadow="0">
      <root>
        <mxCell id="0" />
        <mxCell id="1" parent="0" />
        <mxCell id="fd5UWIRJ3bhiEnVHCoNk-9" value="" style="edgeStyle=orthogonalEdgeStyle;rounded=0;orthogonalLoop=1;jettySize=auto;html=1;" edge="1" parent="1" source="fd5UWIRJ3bhiEnVHCoNk-1" target="fd5UWIRJ3bhiEnVHCoNk-2">
          <mxGeometry relative="1" as="geometry" />
        </mxCell>
        <mxCell id="fd5UWIRJ3bhiEnVHCoNk-30" style="edgeStyle=orthogonalEdgeStyle;rounded=0;orthogonalLoop=1;jettySize=auto;html=1;exitX=1;exitY=0.5;exitDx=0;exitDy=0;entryX=0;entryY=0.5;entryDx=0;entryDy=0;" edge="1" parent="1" source="fd5UWIRJ3bhiEnVHCoNk-1" target="fd5UWIRJ3bhiEnVHCoNk-3">
          <mxGeometry relative="1" as="geometry" />
        </mxCell>
        <mxCell id="fd5UWIRJ3bhiEnVHCoNk-1" value="hotel" style="rounded=1;whiteSpace=wrap;html=1;" vertex="1" parent="1">
          <mxGeometry x="330" y="490" width="120" height="60" as="geometry" />
        </mxCell>
        <mxCell id="fd5UWIRJ3bhiEnVHCoNk-24" style="edgeStyle=orthogonalEdgeStyle;rounded=0;orthogonalLoop=1;jettySize=auto;html=1;exitX=0;exitY=0.25;exitDx=0;exitDy=0;entryX=1;entryY=1;entryDx=0;entryDy=0;" edge="1" parent="1" source="fd5UWIRJ3bhiEnVHCoNk-2" target="fd5UWIRJ3bhiEnVHCoNk-5">
          <mxGeometry relative="1" as="geometry" />
        </mxCell>
        <mxCell id="fd5UWIRJ3bhiEnVHCoNk-25" style="edgeStyle=orthogonalEdgeStyle;rounded=0;orthogonalLoop=1;jettySize=auto;html=1;exitX=0;exitY=0;exitDx=0;exitDy=0;" edge="1" parent="1" source="fd5UWIRJ3bhiEnVHCoNk-2" target="fd5UWIRJ3bhiEnVHCoNk-6">
          <mxGeometry relative="1" as="geometry" />
        </mxCell>
        <mxCell id="fd5UWIRJ3bhiEnVHCoNk-26" style="edgeStyle=orthogonalEdgeStyle;rounded=0;orthogonalLoop=1;jettySize=auto;html=1;exitX=0.75;exitY=0;exitDx=0;exitDy=0;" edge="1" parent="1" source="fd5UWIRJ3bhiEnVHCoNk-2" target="fd5UWIRJ3bhiEnVHCoNk-7">
          <mxGeometry relative="1" as="geometry" />
        </mxCell>
        <mxCell id="fd5UWIRJ3bhiEnVHCoNk-27" style="edgeStyle=orthogonalEdgeStyle;rounded=0;orthogonalLoop=1;jettySize=auto;html=1;exitX=1;exitY=0;exitDx=0;exitDy=0;entryX=0;entryY=1;entryDx=0;entryDy=0;" edge="1" parent="1" source="fd5UWIRJ3bhiEnVHCoNk-2" target="fd5UWIRJ3bhiEnVHCoNk-8">
          <mxGeometry relative="1" as="geometry" />
        </mxCell>
        <mxCell id="fd5UWIRJ3bhiEnVHCoNk-2" value="quartos" style="rounded=1;whiteSpace=wrap;html=1;" vertex="1" parent="1">
          <mxGeometry x="330" y="340" width="120" height="60" as="geometry" />
        </mxCell>
        <mxCell id="fd5UWIRJ3bhiEnVHCoNk-32" style="edgeStyle=orthogonalEdgeStyle;rounded=0;orthogonalLoop=1;jettySize=auto;html=1;exitX=0.75;exitY=1;exitDx=0;exitDy=0;" edge="1" parent="1" source="fd5UWIRJ3bhiEnVHCoNk-3" target="fd5UWIRJ3bhiEnVHCoNk-14">
          <mxGeometry relative="1" as="geometry" />
        </mxCell>
        <mxCell id="fd5UWIRJ3bhiEnVHCoNk-33" style="edgeStyle=orthogonalEdgeStyle;rounded=0;orthogonalLoop=1;jettySize=auto;html=1;exitX=1;exitY=1;exitDx=0;exitDy=0;" edge="1" parent="1" source="fd5UWIRJ3bhiEnVHCoNk-3" target="fd5UWIRJ3bhiEnVHCoNk-15">
          <mxGeometry relative="1" as="geometry">
            <Array as="points">
              <mxPoint x="630" y="595" />
              <mxPoint x="650" y="595" />
            </Array>
          </mxGeometry>
        </mxCell>
        <mxCell id="fd5UWIRJ3bhiEnVHCoNk-34" style="edgeStyle=orthogonalEdgeStyle;rounded=0;orthogonalLoop=1;jettySize=auto;html=1;exitX=1;exitY=0.75;exitDx=0;exitDy=0;" edge="1" parent="1" source="fd5UWIRJ3bhiEnVHCoNk-3" target="fd5UWIRJ3bhiEnVHCoNk-13">
          <mxGeometry relative="1" as="geometry" />
        </mxCell>
        <mxCell id="fd5UWIRJ3bhiEnVHCoNk-35" style="edgeStyle=orthogonalEdgeStyle;rounded=0;orthogonalLoop=1;jettySize=auto;html=1;exitX=1;exitY=0.25;exitDx=0;exitDy=0;" edge="1" parent="1" source="fd5UWIRJ3bhiEnVHCoNk-3" target="fd5UWIRJ3bhiEnVHCoNk-11">
          <mxGeometry relative="1" as="geometry" />
        </mxCell>
        <mxCell id="fd5UWIRJ3bhiEnVHCoNk-36" style="edgeStyle=orthogonalEdgeStyle;rounded=0;orthogonalLoop=1;jettySize=auto;html=1;exitX=0.75;exitY=0;exitDx=0;exitDy=0;entryX=0.5;entryY=1;entryDx=0;entryDy=0;" edge="1" parent="1" source="fd5UWIRJ3bhiEnVHCoNk-3" target="fd5UWIRJ3bhiEnVHCoNk-10">
          <mxGeometry relative="1" as="geometry" />
        </mxCell>
        <mxCell id="fd5UWIRJ3bhiEnVHCoNk-37" style="edgeStyle=orthogonalEdgeStyle;rounded=0;orthogonalLoop=1;jettySize=auto;html=1;exitX=1;exitY=0;exitDx=0;exitDy=0;entryX=0;entryY=1;entryDx=0;entryDy=0;" edge="1" parent="1" source="fd5UWIRJ3bhiEnVHCoNk-3" target="fd5UWIRJ3bhiEnVHCoNk-12">
          <mxGeometry relative="1" as="geometry" />
        </mxCell>
        <mxCell id="fd5UWIRJ3bhiEnVHCoNk-3" value="reservas" style="rounded=1;whiteSpace=wrap;html=1;" vertex="1" parent="1">
          <mxGeometry x="510" y="490" width="120" height="60" as="geometry" />
        </mxCell>
        <mxCell id="fd5UWIRJ3bhiEnVHCoNk-20" style="edgeStyle=orthogonalEdgeStyle;rounded=0;orthogonalLoop=1;jettySize=auto;html=1;exitX=0;exitY=0;exitDx=0;exitDy=0;" edge="1" parent="1" source="fd5UWIRJ3bhiEnVHCoNk-4" target="fd5UWIRJ3bhiEnVHCoNk-16">
          <mxGeometry relative="1" as="geometry" />
        </mxCell>
        <mxCell id="fd5UWIRJ3bhiEnVHCoNk-21" style="edgeStyle=orthogonalEdgeStyle;rounded=0;orthogonalLoop=1;jettySize=auto;html=1;exitX=0;exitY=1;exitDx=0;exitDy=0;entryX=1;entryY=0.5;entryDx=0;entryDy=0;" edge="1" parent="1" source="fd5UWIRJ3bhiEnVHCoNk-4" target="fd5UWIRJ3bhiEnVHCoNk-17">
          <mxGeometry relative="1" as="geometry" />
        </mxCell>
        <mxCell id="fd5UWIRJ3bhiEnVHCoNk-22" style="edgeStyle=orthogonalEdgeStyle;rounded=0;orthogonalLoop=1;jettySize=auto;html=1;exitX=0.25;exitY=1;exitDx=0;exitDy=0;" edge="1" parent="1" source="fd5UWIRJ3bhiEnVHCoNk-4" target="fd5UWIRJ3bhiEnVHCoNk-18">
          <mxGeometry relative="1" as="geometry" />
        </mxCell>
        <mxCell id="fd5UWIRJ3bhiEnVHCoNk-23" style="edgeStyle=orthogonalEdgeStyle;rounded=0;orthogonalLoop=1;jettySize=auto;html=1;exitX=0.5;exitY=1;exitDx=0;exitDy=0;" edge="1" parent="1" source="fd5UWIRJ3bhiEnVHCoNk-4" target="fd5UWIRJ3bhiEnVHCoNk-19">
          <mxGeometry relative="1" as="geometry" />
        </mxCell>
        <mxCell id="fd5UWIRJ3bhiEnVHCoNk-29" style="edgeStyle=orthogonalEdgeStyle;rounded=0;orthogonalLoop=1;jettySize=auto;html=1;exitX=1;exitY=0.5;exitDx=0;exitDy=0;entryX=0;entryY=0.5;entryDx=0;entryDy=0;" edge="1" parent="1" source="fd5UWIRJ3bhiEnVHCoNk-4" target="fd5UWIRJ3bhiEnVHCoNk-1">
          <mxGeometry relative="1" as="geometry" />
        </mxCell>
        <mxCell id="fd5UWIRJ3bhiEnVHCoNk-4" value="clientes" style="rounded=1;whiteSpace=wrap;html=1;" vertex="1" parent="1">
          <mxGeometry x="150" y="490" width="120" height="60" as="geometry" />
        </mxCell>
        <mxCell id="fd5UWIRJ3bhiEnVHCoNk-5" value="id_quarto" style="ellipse;whiteSpace=wrap;html=1;" vertex="1" parent="1">
          <mxGeometry x="160" y="290" width="110" height="70" as="geometry" />
        </mxCell>
        <mxCell id="fd5UWIRJ3bhiEnVHCoNk-6" value="tipo (solteiro,casal, luxo)" style="ellipse;whiteSpace=wrap;html=1;" vertex="1" parent="1">
          <mxGeometry x="250" y="220" width="110" height="70" as="geometry" />
        </mxCell>
        <mxCell id="fd5UWIRJ3bhiEnVHCoNk-7" value="preço_diaria" style="ellipse;whiteSpace=wrap;html=1;" vertex="1" parent="1">
          <mxGeometry x="414" y="220" width="110" height="70" as="geometry" />
        </mxCell>
        <mxCell id="fd5UWIRJ3bhiEnVHCoNk-8" value="status (disponível, ocupado)&amp;nbsp;" style="ellipse;whiteSpace=wrap;html=1;" vertex="1" parent="1">
          <mxGeometry x="510" y="290" width="110" height="70" as="geometry" />
        </mxCell>
        <mxCell id="fd5UWIRJ3bhiEnVHCoNk-10" value="id_reserva" style="ellipse;whiteSpace=wrap;html=1;" vertex="1" parent="1">
          <mxGeometry x="550" y="400" width="110" height="70" as="geometry" />
        </mxCell>
        <mxCell id="fd5UWIRJ3bhiEnVHCoNk-11" value="id_quarto" style="ellipse;whiteSpace=wrap;html=1;" vertex="1" parent="1">
          <mxGeometry x="650" y="460" width="110" height="70" as="geometry" />
        </mxCell>
        <mxCell id="fd5UWIRJ3bhiEnVHCoNk-12" value="id_cliente" style="ellipse;whiteSpace=wrap;html=1;" vertex="1" parent="1">
          <mxGeometry x="660" y="380" width="110" height="70" as="geometry" />
        </mxCell>
        <mxCell id="fd5UWIRJ3bhiEnVHCoNk-13" value="data_checkin" style="ellipse;whiteSpace=wrap;html=1;" vertex="1" parent="1">
          <mxGeometry x="650" y="560" width="110" height="70" as="geometry" />
        </mxCell>
        <mxCell id="fd5UWIRJ3bhiEnVHCoNk-14" value="status (confirmada, cancelada, finalizada)" style="ellipse;whiteSpace=wrap;html=1;" vertex="1" parent="1">
          <mxGeometry x="540" y="580" width="110" height="70" as="geometry" />
        </mxCell>
        <mxCell id="fd5UWIRJ3bhiEnVHCoNk-15" value="data_checkout" style="ellipse;whiteSpace=wrap;html=1;" vertex="1" parent="1">
          <mxGeometry x="630" y="640" width="110" height="70" as="geometry" />
        </mxCell>
        <mxCell id="fd5UWIRJ3bhiEnVHCoNk-16" value="id_cliente" style="ellipse;whiteSpace=wrap;html=1;" vertex="1" parent="1">
          <mxGeometry x="20" y="440" width="110" height="70" as="geometry" />
        </mxCell>
        <mxCell id="fd5UWIRJ3bhiEnVHCoNk-17" value="nome" style="ellipse;whiteSpace=wrap;html=1;" vertex="1" parent="1">
          <mxGeometry x="20" y="520" width="110" height="70" as="geometry" />
        </mxCell>
        <mxCell id="fd5UWIRJ3bhiEnVHCoNk-18" value="email" style="ellipse;whiteSpace=wrap;html=1;" vertex="1" parent="1">
          <mxGeometry x="20" y="600" width="110" height="70" as="geometry" />
        </mxCell>
        <mxCell id="fd5UWIRJ3bhiEnVHCoNk-19" value="telefone" style="ellipse;whiteSpace=wrap;html=1;" vertex="1" parent="1">
          <mxGeometry x="140" y="610" width="110" height="70" as="geometry" />
        </mxCell>
        <mxCell id="fd5UWIRJ3bhiEnVHCoNk-31" style="edgeStyle=orthogonalEdgeStyle;rounded=0;orthogonalLoop=1;jettySize=auto;html=1;exitX=0.75;exitY=1;exitDx=0;exitDy=0;entryX=0.577;entryY=0.992;entryDx=0;entryDy=0;entryPerimeter=0;" edge="1" parent="1" source="fd5UWIRJ3bhiEnVHCoNk-4" target="fd5UWIRJ3bhiEnVHCoNk-3">
          <mxGeometry relative="1" as="geometry" />
        </mxCell>
      </root>
    </mxGraphModel>
  </diagram>
</mxfile>
